<svg width="320px" height="240px" xmlns="http://www.w3.org/2000/svg">
    <!-- <path d="M76.2516 6.88867C74.9034 6.88767 73.5734 7.19941 72.3662 7.79935C71.159 8.39929 70.1076 9.27106 69.2947 10.3461C68.4222 9.9708 67.4701 9.81796 66.5239 9.90125C65.5778 9.98455 64.6671 10.3014 63.8736 10.8233C63.0802 11.3452 62.4289 12.0559 61.9781 12.8915C61.5273 13.7271 61.2912 14.6615 61.291 15.6109H84.9786C84.9786 14.4654 84.7529 13.3313 84.3143 12.273C83.8757 11.2148 83.2329 10.2533 82.4225 9.44334C81.6121 8.63341 80.6501 7.99093 79.5913 7.5526C78.5325 7.11427 77.3976 6.88867 76.2516 6.88867Z" fill="#E6E6E6"/> -->
    <path d="M0 0 L100 100 L 200 0" fill="#E6E6E6"/>
</svg>